<svg width="24" height="24" fill="none" xmlns="http://www.w3.org/2000/svg"><g clip-path="url(#clip0)" fill="#1D2D3A"><path d="M17.484 11a1.003 1.003 0 01-1.42.91L11.984 10l-4.08 1.91a1.003 1.003 0 01-1.42-.91c0-.15.03-.28.09-.41l4.5-10c.15-.35.5-.59.91-.59.41 0 .76.24.91.59l4.5 10c.06.13.09.26.09.41z"/><path d="M11.984 24c-6.065 0-11-4.935-11-11a10.9 10.9 0 014.073-8.53 1 1 0 111.254 1.558A8.909 8.909 0 002.984 13c0 4.962 4.037 9 9 9s9-4.038 9-9a8.906 8.906 0 00-3.327-6.971 1 1 0 111.254-1.557A10.893 10.893 0 0122.984 13c0 6.065-4.935 11-11 11z"/></g><defs><clipPath id="clip0"><path fill="#fff" d="M0 0h24v24H0z"/></clipPath></defs></svg>